<svg xmlns="http://www.w3.org/2000/svg" viewBox="0 0 128 128" role="img" aria-label="beef">
  <defs>
    <linearGradient id="warm" x1="16" y1="16" x2="112" y2="112"><stop stop-color="#ffd166"/><stop offset="1" stop-color="#ef476f"/></linearGradient>
    <linearGradient id="cool" x1="16" y1="112" x2="112" y2="16"><stop stop-color="#4cc9f0"/><stop offset="1" stop-color="#2d6a4f"/></linearGradient>
    <linearGradient id="stone" x1="0" y1="0" x2="1" y2="1"><stop stop-color="#f4f1de"/><stop offset="1" stop-color="#8d99ae"/></linearGradient>
    <filter id="soft" x="-20%" y="-20%" width="140%" height="140%"><feDropShadow dx="0" dy="5" stdDeviation="4" flood-color="#12302a" flood-opacity=".28"/></filter>
  </defs>
  <rect x="8" y="8" width="112" height="112" rx="24" fill="#ffffff"/>
  <g filter="url(#soft)">
    <path d="M27 63c0-23 18-35 42-31 25 4 39 24 29 45-11 22-45 28-62 14-6-5-9-14-9-28z" fill="#b23a48"/><path d="M45 61c3-14 19-18 30-10 12 10 4 27-12 28-13 1-21-7-18-18z" fill="#f7cad0"/><path d="M78 75c8 0 13-3 18-8" fill="none" stroke="#6f1d1b" stroke-width="5" stroke-linecap="round"/>
  </g>
</svg>
