<svg xmlns="http://www.w3.org/2000/svg" viewBox="0 0 128 128" role="img" aria-label="temple-of-heaven">
  <defs>
    <linearGradient id="warm" x1="16" y1="16" x2="112" y2="112"><stop stop-color="#ffd166"/><stop offset="1" stop-color="#ef476f"/></linearGradient>
    <linearGradient id="cool" x1="16" y1="112" x2="112" y2="16"><stop stop-color="#4cc9f0"/><stop offset="1" stop-color="#2d6a4f"/></linearGradient>
    <linearGradient id="stone" x1="0" y1="0" x2="1" y2="1"><stop stop-color="#f4f1de"/><stop offset="1" stop-color="#8d99ae"/></linearGradient>
    <filter id="soft" x="-20%" y="-20%" width="140%" height="140%"><feDropShadow dx="0" dy="5" stdDeviation="4" flood-color="#12302a" flood-opacity=".28"/></filter>
  </defs>
  <rect x="8" y="8" width="112" height="112" rx="24" fill="#ffffff"/>
  <g filter="url(#soft)">
    <ellipse cx="64" cy="94" rx="38" ry="8" fill="#8d99ae"/><path d="M34 75h60l-8 20H42z" fill="#2d6a4f"/><path d="M29 70c18-12 52-12 70 0l-6 9H35z" fill="#f4a261"/><path d="M40 58c14-12 34-12 48 0l-6 11H46z" fill="#1d3557"/><path d="M52 44c7-8 17-8 24 0l-4 13H56z" fill="#e76f51"/>
  </g>
</svg>
